<svg width="18" height="18" viewBox="0 0 18 18" fill="none" xmlns="http://www.w3.org/2000/svg">
<path d="M10.9771 1.02765e-06C11.0618 -0.000150186 11.1456 0.0163877 11.2239 0.0486692C11.3022 0.0809508 11.3733 0.128343 11.4333 0.188136L17.8118 6.56669C17.9326 6.68752 18.0005 6.85137 18.0005 7.02221C18.0005 7.19306 17.9326 7.35691 17.8118 7.47773C17.1933 8.09626 16.4305 8.23543 15.8751 8.23543C15.647 8.23543 15.4434 8.21223 15.2823 8.18517L11.2439 12.2236C11.3502 12.652 11.4191 13.0887 11.45 13.529C11.5093 14.4336 11.4088 15.7028 10.5222 16.5894C10.4014 16.7102 10.2376 16.778 10.0667 16.778C9.89587 16.778 9.73202 16.7102 9.6112 16.5894L5.96576 12.9452L1.86544 17.0456C1.61417 17.2968 0.294644 18.2079 0.0433672 17.9566C-0.207909 17.7053 0.703129 16.3845 0.954405 16.1345L5.05472 12.0342L1.41057 8.38877C1.28978 8.26795 1.22193 8.10409 1.22193 7.93325C1.22193 7.7624 1.28978 7.59855 1.41057 7.47773C2.29712 6.59118 3.56639 6.48938 4.47099 6.54994C4.91125 6.58079 5.348 6.64977 5.77634 6.75612L9.8148 2.71894C9.78109 2.52271 9.76385 2.324 9.76325 2.1249C9.76325 1.5708 9.90242 0.807951 10.5222 0.188136C10.643 0.0676924 10.8066 3.72617e-05 10.9771 1.02765e-06Z" fill="#686868"/>
</svg>
