<svg width="14" height="15" viewBox="0 0 14 15" fill="none" xmlns="http://www.w3.org/2000/svg">
<path fill-rule="evenodd" clip-rule="evenodd" d="M10.2307 4.16966C11.9089 5.92708 11.8448 8.71227 10.0874 10.3906C8.32994 12.0688 5.54476 12.0047 3.86647 10.2473C2.18819 8.48984 2.25235 5.70465 4.00977 4.02637C5.76719 2.34809 8.55238 2.41224 10.2307 4.16966ZM12.013 11.2486C14.0243 8.78357 13.9311 5.14871 11.6771 2.78839C9.23593 0.232143 5.18475 0.138826 2.6285 2.57996C0.0722492 5.0211 -0.0210679 9.07228 2.42007 11.6285C4.67409 13.9888 8.30079 14.2493 10.8559 12.3537L12.5476 14.1252C12.8527 14.4447 13.3591 14.4564 13.6787 14.1512C13.9982 13.8461 14.0099 13.3397 13.7047 13.0201L12.013 11.2486Z" fill="#B2B2B2"/>
</svg>
